<?xml version="1.0" encoding="utf-8"?>
<!-- Generator: Adobe Illustrator 24.3.0, SVG Export Plug-In . SVG Version: 6.00 Build 0)  -->
<svg version="1.1" id="Layer_1" xmlns="http://www.w3.org/2000/svg" xmlns:xlink="http://www.w3.org/1999/xlink" x="0px" y="0px"
	 viewBox="0 0 25.14 24.98" style="enable-background:new 0 0 25.14 24.98;" xml:space="preserve">
<style type="text/css">
	.st0{fill-rule:evenodd;clip-rule:evenodd;fill:#FFFFFF;}
</style>
<path class="st0" d="M10.35,1.14C10.35,0.51,9.84,0,9.22,0c-0.35,0-0.68,0.16-0.9,0.44L0.38,10.67c-0.32,0.41-0.32,0.99,0,1.4
	l7.94,10.23c0.38,0.5,1.1,0.59,1.59,0.2c0.28-0.22,0.44-0.55,0.44-0.9v-4.53c6.1,0.13,9.03,1.29,10.5,2.55
	c1.4,1.2,1.66,2.61,1.92,4.09l0.07,0.38c0.12,0.62,0.71,1.02,1.32,0.91c0.51-0.1,0.89-0.53,0.92-1.05c0.19-3.12-0.1-7.65-2.3-11.43
	C20.66,8.83,16.81,6,10.35,5.71V1.14z"/>
</svg>
