<?xml version="1.0" encoding="utf-8"?>
<!-- Generator: Adobe Illustrator 24.3.0, SVG Export Plug-In . SVG Version: 6.00 Build 0)  -->
<svg version="1.1" id="Layer_1" xmlns="http://www.w3.org/2000/svg" xmlns:xlink="http://www.w3.org/1999/xlink" x="0px" y="0px"
	 viewBox="0 0 22.69 14.88" style="enable-background:new 0 0 22.69 14.88;" xml:space="preserve">
<style type="text/css">
	.st0{fill:#FFFFFF;stroke:#FFFFFF;stroke-width:0.7;stroke-miterlimit:10;}
	.st1{fill:#FFFFFF;stroke:#FFFFFF;stroke-width:0.5;stroke-miterlimit:10;}
	.st2{fill:#FFFFFF;stroke:#FFFFFF;stroke-miterlimit:10;}
</style>
<path class="st0" d="M18.4,6.35c0-0.06,0.01-0.12,0.01-0.18c0-3.16-2.59-5.76-5.74-5.76c-2.26,0-4.21,1.37-5.13,3.29
	c-0.4-0.2-0.84-0.31-1.32-0.31c-1.45,0-2.66,1.16-2.89,2.55c-1.73,0.6-2.98,2.17-2.98,4.12c0,2.45,1.97,4.5,4.4,4.5h13.57
	c2.21,0,4.03-1.91,4.03-4.14C22.37,8.18,20.63,6.35,18.4,6.35L18.4,6.35z M18.32,13.75l-0.16,0.02H4.81c-2.01,0-3.64-1.71-3.64-3.74
	c0-1.57,0.99-2.87,2.47-3.38l0.41-0.15l0.07-0.43C4.29,5.02,5.2,4.15,6.27,4.15c0.34,0,0.67,0.08,0.98,0.24l0.66,0.33l0.32-0.67
	c0.82-1.71,2.56-2.86,4.44-2.86c2.72,0,4.95,2.17,4.95,4.9c0,0.65-0.01,1-0.01,1l0.75,0c1.8,0.02,3.22,1.5,3.22,3.31
	C21.58,12.2,20.12,13.74,18.32,13.75z"/>
<path class="st1" d="M11.85,11.9h-0.1c-0.28,0-0.5-0.22-0.5-0.5l0-5.85c0-0.28,0.22-0.5,0.5-0.5l0.1,0c0.28,0,0.5,0.22,0.5,0.5
	l0,5.85C12.35,11.68,12.13,11.9,11.85,11.9z"/>
<path class="st2" d="M12.49,5.21l-2.26,2.24c-0.2,0.2-0.53,0.2-0.74,0l0,0c-0.2-0.2-0.2-0.53,0-0.73l2.26-2.24L12.49,5.21z"/>
<path class="st2" d="M11.78,4.46l2.28,2.24c0.2,0.2,0.2,0.52,0,0.73v0c-0.2,0.2-0.53,0.2-0.74,0l-2.28-2.24L11.78,4.46z"/>
</svg>
