<?xml version="1.0" encoding="utf-8"?>
<!-- Generator: Adobe Illustrator 24.3.0, SVG Export Plug-In . SVG Version: 6.00 Build 0)  -->
<svg version="1.1" id="Layer_1" xmlns="http://www.w3.org/2000/svg" xmlns:xlink="http://www.w3.org/1999/xlink" x="0px" y="0px"
	 viewBox="0 0 22 25" style="enable-background:new 0 0 22 25;" xml:space="preserve">
<style type="text/css">
	.st0{fill:#FFFFFF;}
</style>
<path class="st0" d="M7,22c-2.21,0-4-1.79-4-4V5H2C0.9,5,0,5.9,0,7v16c0,1.1,0.9,2,2,2h13c1.1,0,2-0.9,2-2v-1H7z"/>
<path class="st0" d="M21.71,5.79l-5.5-5.5C16.02,0.11,15.77,0,15.5,0H7C5.9,0,5,0.9,5,2v16c0,1.1,0.9,2,2,2h13c1.1,0,2-0.9,2-2V6.5
	C22,6.23,21.89,5.98,21.71,5.79z M16,7c-0.55,0-1-0.45-1-1V1.9L20.1,7H16z"/>
</svg>
