<?xml version="1.0" encoding="utf-8"?>
<!-- Generator: Adobe Illustrator 24.3.0, SVG Export Plug-In . SVG Version: 6.00 Build 0)  -->
<svg version="1.1" id="Layer_1" xmlns="http://www.w3.org/2000/svg" xmlns:xlink="http://www.w3.org/1999/xlink" x="0px" y="0px"
	 viewBox="0 0 22 25" style="enable-background:new 0 0 22 25;" xml:space="preserve">
<style type="text/css">
	.st0{fill:#FFFFFF;}
</style>
<path class="st0" d="M2.54,8.1v14.09c0,1.55,1.14,2.82,2.54,2.82h11.85c1.4,0,2.54-1.26,2.54-2.82V8.1H2.54z M7.62,21.22
	c0,0.56-0.38,1.01-0.85,1.01c-0.47,0-0.85-0.45-0.85-1.01v-9.08c0-0.56,0.38-1.01,0.85-1.01c0.47,0,0.85,0.45,0.85,1.01V21.22z
	 M11.85,21.22c0,0.56-0.38,1.01-0.85,1.01c-0.47,0-0.85-0.45-0.85-1.01v-9.08c0-0.56,0.38-1.01,0.85-1.01
	c0.47,0,0.85,0.45,0.85,1.01V21.22z M16.08,21.22c0,0.56-0.38,1.01-0.85,1.01s-0.85-0.45-0.85-1.01v-9.08
	c0-0.56,0.38-1.01,0.85-1.01s0.85,0.45,0.85,1.01V21.22z M20.31,3.78h-5.08V2.84c0-1.56-1.14-2.84-2.54-2.84H9.31
	c-1.4,0-2.54,1.27-2.54,2.84v0.95H1.69C0.76,3.78,0,4.63,0,5.67v0.95c0,0.52,0.38,0.95,0.85,0.95h20.31c0.47,0,0.85-0.42,0.85-0.95
	V5.67C22,4.63,21.24,3.78,20.31,3.78z M8.46,2.51c0-0.56,0.38-1.01,0.85-1.01h3.38c0.47,0,0.85,0.45,0.85,1.01v1.01H8.46V2.51z"/>
</svg>
