<?xml version="1.0" encoding="utf-8"?>
<!-- Generator: Adobe Illustrator 24.3.0, SVG Export Plug-In . SVG Version: 6.00 Build 0)  -->
<svg version="1.1" id="Layer_1" xmlns="http://www.w3.org/2000/svg" xmlns:xlink="http://www.w3.org/1999/xlink" x="0px" y="0px"
	 viewBox="0 0 25 23.32" style="enable-background:new 0 0 25 23.32;" xml:space="preserve">
<style type="text/css">
	.st0{fill:#FFFFFF;}
</style>
<path class="st0" d="M22.6,0.41l-2.53,2.53C18.05,1.1,15.39,0,12.5,0C7.58,0,3.26,3.14,1.75,7.82c-0.28,0.88,0.2,1.82,1.07,2.1
	c0.88,0.29,1.82-0.2,2.1-1.07c1.06-3.3,4.11-5.52,7.58-5.52c1.98,0,3.8,0.74,5.22,1.97l-2.35,2.3c-0.83,0.88-0.22,2.36,1.01,2.4
	h7.65C24.57,9.98,25,9.55,25,9.01v-7.6C25,0.16,23.48-0.47,22.6,0.41z M22.18,13.42c-0.88-0.28-1.82,0.2-2.1,1.07
	C19.02,17.79,15.97,20,12.5,20c-1.98,0-3.8-0.74-5.22-1.97l2.3-2.3c0.88-0.88,0.27-2.36-0.96-2.4H0.97C0.43,13.35,0,13.79,0,14.33
	v7.6c0,1.25,1.51,1.88,2.4,0.99l2.53-2.53c2.03,1.84,4.69,2.94,7.53,2.94c4.92,0,9.24-3.14,10.75-7.82
	C23.54,14.64,23.05,13.65,22.18,13.42L22.18,13.42z"/>
</svg>
